# xmcd
#
# Track frame offsets: 
#        182
#        23567
#        41490
#        73145
#        123770
#        141102
#        161167
#        195310
#        233967
#        247377
#        259215
#        280645
#        301575
#
# Disc length: 4338 seconds
#
# Revision: 1
# Processed by: cddbd v1.5.2PL0 Copyright (c) Steve Scherf et al.
# Submitted via: ExactAudioCopy v1.0b1
#
DISCID=b110f00d
DTITLE=Barney Wilen - Wild Dogs of the Ruwenzori
DYEAR=1989
DGENRE=Jazz
TTITLE0=Port of spain shuffle
TTITLE1=Oh Johnny #1
TTITLE2=By the lake
TTITLE3=Wild dogs of the Ruwenzori
TTITLE4=Little Lu
TTITLE5=Auburn privé
TTITLE6=Poinciana
TTITLE7=Pauline extended
TTITLE8=Mama Ines
TTITLE9=Grixy and Scurt
TTITLE10=La danse de Marie
TTITLE11=I need a man
TTITLE12=Oh Johnny #2
EXTD=YEAR: 1989
EXTT0=
EXTT1=
EXTT2=
EXTT3=
EXTT4=
EXTT5=
EXTT6=
EXTT7=
EXTT8=
EXTT9=
EXTT10=
EXTT11=
EXTT12=
PLAYORDER=
